<svg width="52" height="52" viewBox="0 0 52 52" fill="none" xmlns="http://www.w3.org/2000/svg">
<circle cx="26" cy="26" r="26" fill="#CBF1DC"/>
<ellipse cx="26" cy="42" rx="15" ry="1" fill="#074D26" fill-opacity="0.2"/>
<path d="M36.5145 40.424C36.5145 40.424 37.6639 32.2691 31.0962 32.2691C29.3486 33.4343 27.7975 34.3483 26.1156 34.345L25.9646 34.3997C24.2822 34.403 22.7311 33.3796 20.9841 32.2149C14.655 32.1957 15.7797 40.3698 15.6533 40.4245" fill="white"/>
<path d="M32.154 39.8356C31.2472 39.8356 30.512 39.1005 30.512 38.1937C30.512 37.2869 31.2472 36.5518 32.154 36.5518C33.0608 36.5518 33.7959 37.2869 33.7959 38.1937C33.7959 39.1005 33.0608 39.8356 32.154 39.8356Z" fill="#00B04E"/>
<path d="M20.9546 32.2078C22.6896 33.3642 23.8417 34.1233 26.0654 34.4457C18.9159 34.6707 18.9706 38.2282 18.5536 40.4174H15.7552C15.7552 40.4174 14.3245 32.2067 20.9546 32.2078Z" fill="#D0CFCE"/>
<path d="M31.0342 17.3573V12.9952C31.0342 12.9952 27.3563 13.1375 26.0044 11.5503C24.6525 13.1375 20.9746 12.9952 20.9746 12.9952V17.3408L25.9387 16.8592L31.0342 17.3573Z" fill="white"/>
<path d="M27.0884 14.8584H26.2992V15.6476H25.7436V14.8584H24.9544V14.3029H25.7436V13.5137H26.2992V14.3029H27.0884V14.8584Z" fill="#D22F27"/>
<path d="M19.8243 23.1253C20.8357 23.2709 21.1362 20.3888 21.1362 20.3888C21.3463 23.3278 24.3127 20.1222 24.3127 20.1222C23.8333 21.994 27.1172 19.807 27.1172 19.807C26.3307 21.4746 29.6386 19.2788 29.6386 19.2788C29.6386 19.2788 31.1333 22.6037 32.1694 23.0968C32.1765 23.2517 32.188 23.4055 32.188 23.5632C32.188 27.8475 29.4098 31.3202 25.9826 31.3202C22.5553 31.3202 19.7766 27.8475 19.7766 23.5632C19.7766 23.3935 19.7887 23.2282 19.7969 23.0618C19.8073 23.0832 19.8133 23.1045 19.8243 23.1253Z" fill="#FBEDC0"/>
<path d="M19.7704 23.0087C19.7868 23.047 19.8087 23.0853 19.8251 23.1236C20.8377 23.2714 21.1387 20.387 21.1387 20.387C21.3467 23.3261 24.3131 20.1243 24.3131 20.1243C23.8315 21.9961 27.1153 19.8069 27.1153 19.8069C26.3327 21.4762 29.6384 19.2815 29.6384 19.2815C29.6384 19.2815 31.1764 22.7022 32.2108 23.1181C32.2163 23.1181 32.2163 23.1236 32.2217 23.1236C32.2983 22.943 32.364 22.7624 32.4188 22.5872C32.6895 21.8176 32.746 20.9889 32.5821 20.1897C32.4182 19.3905 32.0401 18.6509 31.4883 18.05C31.5207 18.0034 31.5448 17.9516 31.5595 17.8968C31.5785 17.8217 31.5841 17.7439 31.5759 17.6669C31.5759 17.656 31.5814 17.6395 31.5814 17.6286V16.7584C31.2694 16.3643 31.5102 16.5011 31.0943 16.3096L30.8097 17.3002L30.4868 17.032C27.5505 16.2448 24.459 16.2429 21.5218 17.0266V16.1782C21.1172 16.5645 20.754 16.9919 20.4381 17.4535C20.4327 17.4589 20.4327 17.4644 20.4272 17.4699C20.0573 17.9998 19.766 18.5805 19.5624 19.1939C19.1346 20.4444 19.2092 21.8121 19.7704 23.0087Z" fill="#226F45"/>
<path d="M20.5965 12.5987C20.6495 12.5481 20.7122 12.5088 20.781 12.4834C20.8497 12.458 20.9229 12.4469 20.9961 12.4509C21.0727 12.4509 21.1657 12.4564 21.2697 12.4564C22.3644 12.4509 24.6631 12.2375 25.5661 11.2195C25.5891 11.1865 25.6167 11.157 25.6482 11.1319C25.705 11.0826 25.7725 11.047 25.8452 11.0279C25.8655 11.0174 25.888 11.0118 25.9109 11.0115C25.941 11.0022 25.9725 10.9985 26.004 11.0006C26.0354 10.9988 26.0669 11.0025 26.097 11.0115C26.1199 11.0118 26.1424 11.0174 26.1627 11.0279C26.2643 11.0558 26.3543 11.1152 26.4199 11.1976C26.4254 11.2031 26.4309 11.214 26.4418 11.2195C27.0172 11.7537 27.7399 12.1027 28.5161 12.2211C29.2493 12.3706 29.9954 12.4476 30.7437 12.4509C30.8422 12.4509 30.9352 12.4509 31.0119 12.4455C31.1616 12.4425 31.3066 12.4974 31.4169 12.5987C31.5215 12.7032 31.5806 12.8449 31.5811 12.9928V17.6285C31.5811 17.6394 31.5756 17.6559 31.5756 17.6668C31.5837 17.7438 31.5782 17.8216 31.5592 17.8967C31.5445 17.9515 31.5204 18.0033 31.488 18.0499C31.437 18.1234 31.3692 18.1836 31.2901 18.2255C31.2111 18.2674 31.1232 18.2898 31.0337 18.2907C30.9798 18.2896 30.9263 18.2804 30.875 18.2634C27.7043 17.278 24.3091 17.278 21.1384 18.2634C21.0164 18.3013 20.8849 18.2952 20.7669 18.2462C20.6489 18.1972 20.5518 18.1084 20.4926 17.9952C20.4765 17.9676 20.4636 17.9382 20.4542 17.9076C20.4435 17.8759 20.4379 17.8426 20.4378 17.8091C20.4296 17.762 20.4296 17.7139 20.4378 17.6668C20.4309 17.6552 20.4272 17.642 20.4269 17.6285V12.9928C20.4269 12.919 20.442 12.846 20.4711 12.7783C20.5003 12.7105 20.543 12.6494 20.5965 12.5987ZM21.5215 17.0265C24.4587 16.2428 27.5502 16.2447 30.4864 17.0319V13.5401C30.366 13.5401 30.2237 13.5346 30.0705 13.5237C28.954 13.458 27.1369 13.2117 26.004 12.2977C24.871 13.2117 23.054 13.458 21.9374 13.5237C21.7842 13.5346 21.6419 13.5401 21.5215 13.5401V17.0265Z" fill="black"/>
<path d="M25.9486 32.0638C29.672 32.0638 32.7014 28.3382 32.7014 23.7589L32.767 23.008C32.7732 22.9364 32.7652 22.8642 32.7434 22.7957C32.7217 22.7272 32.6867 22.6636 32.6404 22.6086C32.5941 22.5536 32.5374 22.5083 32.4736 22.4752C32.4098 22.4421 32.3401 22.4219 32.2684 22.4158C32.1967 22.409 32.1243 22.4165 32.0555 22.438C31.9867 22.4596 31.9228 22.4946 31.8677 22.5411C31.8126 22.5875 31.7674 22.6446 31.7346 22.7088C31.7018 22.773 31.6821 22.8431 31.6768 22.9149L31.6089 23.7124C31.6067 27.7351 29.0683 30.9692 25.9486 30.9692C22.829 30.9692 20.29 27.7346 20.29 23.7589C20.29 23.5035 20.3004 23.2508 20.3212 23.0009C20.3269 22.9292 20.3185 22.8571 20.2964 22.7887C20.2743 22.7203 20.2389 22.6569 20.1923 22.6022C20.1457 22.5475 20.0888 22.5024 20.0248 22.4697C19.9608 22.437 19.891 22.4172 19.8193 22.4114C19.7477 22.4057 19.6756 22.4141 19.6072 22.4362C19.5388 22.4583 19.4754 22.4937 19.4206 22.5403C19.3659 22.5869 19.3209 22.6438 19.2882 22.7078C19.2554 22.7718 19.2356 22.8416 19.2299 22.9133C19.2072 23.1913 19.1957 23.4732 19.1954 23.7589C19.1954 28.3382 22.2242 32.0638 25.9486 32.0638Z" fill="black"/>
<path d="M19.8997 23.6764C20.1434 23.6747 20.3793 23.5906 20.5691 23.4378C20.9661 23.0539 21.2439 22.5636 21.3693 22.0257C21.427 22.0568 21.487 22.0833 21.5488 22.1051C22.3511 22.3859 23.3243 21.7581 24.004 21.1774C24.0327 21.2038 24.063 21.2283 24.0949 21.2507C24.6696 21.6585 25.6952 21.2792 26.6453 20.7401C26.6629 20.759 26.6816 20.7769 26.7012 20.7937C26.8987 20.9651 27.3454 21.3482 29.406 20.079C29.9599 21.2234 31.0326 23.2096 31.9838 23.6162C32.1192 23.6772 32.2733 23.6821 32.4122 23.6298C32.5512 23.5775 32.6638 23.4722 32.7254 23.3371C32.8068 23.1452 32.8788 22.9494 32.9411 22.7504C33.2418 21.8869 33.302 20.9579 33.1153 20.0628C32.9285 19.1677 32.5019 18.3403 31.8809 17.6692C31.7514 17.5336 31.6124 17.4074 31.465 17.2915C31.3506 17.2037 31.2063 17.1645 31.0633 17.1825C30.9202 17.2005 30.7901 17.2742 30.7011 17.3876C30.612 17.5009 30.5713 17.6449 30.5878 17.7881C30.6043 17.9313 30.6766 18.0622 30.789 18.1524C30.8963 18.2369 30.9974 18.3289 31.0917 18.4277C31.5514 18.9283 31.8729 19.5399 32.0247 20.2024C32.1765 20.8649 32.1534 21.5555 31.9575 22.2064C31.2318 21.23 30.6209 20.1733 30.1372 19.0571C30.1046 18.9847 30.0567 18.9203 29.9967 18.8682C29.9367 18.8162 29.8661 18.7778 29.7899 18.7558C29.7136 18.7338 29.6334 18.7286 29.5549 18.7407C29.4764 18.7527 29.4015 18.7817 29.3354 18.8256C28.8039 19.1829 28.2437 19.4956 27.6606 19.7604C27.6525 19.6657 27.6199 19.5746 27.5659 19.4963C27.5119 19.418 27.4385 19.3552 27.3528 19.3139C27.2671 19.2726 27.1721 19.2544 27.0772 19.261C26.9824 19.2676 26.8909 19.2988 26.8117 19.3516C26.2054 19.7777 25.5361 20.1064 24.8283 20.3258C24.8324 20.3039 24.8373 20.2822 24.843 20.2607C24.8734 20.1427 24.8636 20.018 24.8151 19.9062C24.7666 19.7945 24.6822 19.7021 24.5753 19.6437C24.4683 19.5854 24.345 19.5644 24.2248 19.584C24.1045 19.6037 23.9943 19.6628 23.9115 19.7522C23.1836 20.5365 22.2181 21.1791 21.9127 21.0729C21.8498 21.051 21.7217 20.8709 21.6845 20.3482C21.6748 20.2118 21.6144 20.084 21.5151 19.99C21.4158 19.896 21.2849 19.8426 21.1482 19.8403C21.0119 19.84 20.8802 19.8897 20.7781 19.98C20.676 20.0703 20.6106 20.1949 20.5943 20.3302C20.5328 21.0516 20.3442 21.7564 20.0371 22.4121C19.8044 21.9506 19.6844 21.4405 19.6868 20.9237C19.6893 20.4068 19.8142 19.8979 20.0513 19.4386C20.2435 19.0472 20.5131 18.6988 20.8439 18.4146C20.9191 18.3512 20.9983 18.2925 21.0808 18.2389C21.1416 18.2004 21.1941 18.1504 21.2355 18.0916C21.2769 18.0329 21.3063 17.9665 21.3221 17.8964C21.3379 17.8263 21.3396 17.7537 21.3274 17.6829C21.3151 17.6121 21.289 17.5443 21.2505 17.4836C21.2121 17.4229 21.162 17.3703 21.1032 17.3289C21.0445 17.2875 20.9781 17.2581 20.908 17.2424C20.8379 17.2266 20.7653 17.2248 20.6945 17.2371C20.6237 17.2494 20.5559 17.2755 20.4952 17.3139C20.373 17.3931 20.2556 17.4795 20.1438 17.5728C19.3316 18.2726 18.8001 19.2428 18.6478 20.3041C18.4955 21.3653 18.7325 22.4459 19.3152 23.3459L19.3502 23.3978C19.4436 23.5336 19.5847 23.6292 19.7454 23.6655C19.7965 23.6728 19.8481 23.6765 19.8997 23.6764ZM32.154 40.3831C32.587 40.3831 33.0103 40.2547 33.3703 40.0141C33.7303 39.7736 34.0109 39.4317 34.1766 39.0316C34.3423 38.6316 34.3857 38.1914 34.3012 37.7667C34.2167 37.3421 34.0082 36.952 33.702 36.6458C33.3959 36.3396 33.0058 36.1311 32.5811 36.0467C32.1564 35.9622 31.7163 36.0055 31.3162 36.1712C30.9162 36.3369 30.5743 36.6175 30.3337 36.9776C30.0932 37.3376 29.9648 37.7608 29.9648 38.1938C29.9654 38.7743 30.1962 39.3308 30.6066 39.7412C31.0171 40.1517 31.5736 40.3825 32.154 40.3831ZM32.154 37.0992C32.3705 37.0992 32.5821 37.1634 32.7622 37.2837C32.9422 37.404 33.0825 37.5749 33.1653 37.7749C33.2482 37.975 33.2698 38.195 33.2276 38.4074C33.1854 38.6197 33.0811 38.8148 32.928 38.9678C32.7749 39.1209 32.5799 39.2252 32.3676 39.2674C32.1552 39.3097 31.9351 39.288 31.7351 39.2051C31.5351 39.1223 31.3642 38.982 31.2439 38.802C31.1236 38.622 31.0594 38.4103 31.0594 38.1938C31.0598 37.9037 31.1753 37.6255 31.3805 37.4203C31.5857 37.2151 31.8638 37.0996 32.154 37.0992Z" fill="black"/>
<path d="M32.1547 37.0992C32.2772 37.0989 32.3961 37.0576 32.4924 36.9818C32.5886 36.906 32.6567 36.8001 32.6856 36.681C32.7184 36.5469 33.4589 33.3753 31.3009 31.1357C31.251 31.0839 31.1913 31.0425 31.1254 31.0138C31.0595 30.9851 30.9886 30.9696 30.9167 30.9684C30.8448 30.9671 30.7734 30.9799 30.7065 31.0062C30.6395 31.0326 30.5785 31.0718 30.5267 31.1217C30.475 31.1716 30.4336 31.2312 30.4048 31.2972C30.3761 31.3631 30.3607 31.434 30.3594 31.5059C30.3581 31.5778 30.371 31.6492 30.3973 31.7161C30.4236 31.7831 30.4628 31.8441 30.5128 31.8959C32.2576 33.7058 31.6287 36.3953 31.6222 36.4221C31.6026 36.5027 31.6016 36.5867 31.6192 36.6677C31.6369 36.7487 31.6727 36.8247 31.724 36.8898C31.7753 36.955 31.8407 37.0076 31.9153 37.0438C31.9899 37.08 32.0718 37.0993 32.1547 37.0992ZM15.65 40.4471C15.729 40.4475 15.8071 40.4308 15.879 40.3981C15.9509 40.3654 16.0149 40.3175 16.0664 40.2576C16.1179 40.1977 16.1558 40.1274 16.1775 40.0514C16.1992 39.9754 16.2041 39.8957 16.1918 39.8176C16.1853 39.7739 15.557 35.3702 18.5524 33.8651C18.6166 33.8328 18.6739 33.7882 18.7209 33.7338C18.7679 33.6794 18.8038 33.6163 18.8264 33.548C18.849 33.4798 18.858 33.4077 18.8527 33.336C18.8475 33.2643 18.8282 33.1943 18.7959 33.1301C18.7637 33.0658 18.7191 33.0085 18.6647 32.9615C18.6102 32.9145 18.5471 32.8787 18.4789 32.8561C18.4106 32.8334 18.3386 32.8245 18.2669 32.8297C18.1951 32.8349 18.1252 32.8542 18.0609 32.8865C14.3501 34.7506 15.0775 39.7706 15.1098 39.9835C15.1298 40.1125 15.1952 40.2301 15.2942 40.3151C15.3933 40.4001 15.5195 40.4469 15.65 40.4471ZM25.9942 35.2985H26.0511L26.0735 35.298C27.3717 35.2804 28.6317 34.8437 30.261 33.8492C30.3797 33.7713 30.4634 33.6504 30.4946 33.5119C30.5258 33.3734 30.5019 33.2282 30.428 33.1069C30.3542 32.9857 30.2361 32.8979 30.0987 32.8621C29.9614 32.8263 29.8154 32.8452 29.6918 32.915C28.2223 33.812 27.12 34.1984 26.0166 34.2039C24.7854 34.1443 23.5943 33.7468 22.574 33.0551C22.5121 33.0186 22.4436 32.9946 22.3724 32.9846C22.3012 32.9745 22.2288 32.9786 22.1592 32.9966C22.0896 33.0145 22.0242 33.046 21.9668 33.0893C21.9093 33.1325 21.861 33.1866 21.8245 33.2486C21.788 33.3105 21.764 33.379 21.754 33.4502C21.7439 33.5213 21.748 33.5938 21.766 33.6634C21.7839 33.733 21.8154 33.7984 21.8587 33.8558C21.9019 33.9132 21.956 33.9616 22.018 33.9981C23.1908 34.7761 24.5509 35.225 25.9564 35.298H25.9947L25.9942 35.2985ZM36.3816 40.4471C36.512 40.4468 36.638 40.3999 36.737 40.3149C36.8359 40.2299 36.9013 40.1124 36.9212 39.9835C36.9557 39.758 37.7247 34.437 33.6264 32.7289C33.4924 32.673 33.3417 32.6726 33.2075 32.7278C33.0732 32.7831 32.9664 32.8894 32.9105 33.0233C32.8546 33.1573 32.8543 33.308 32.9095 33.4423C32.9647 33.5765 33.071 33.6833 33.205 33.7392C36.5091 35.1168 35.8463 39.7706 35.8392 39.8182C35.8271 39.8962 35.832 39.9759 35.8537 40.0518C35.8754 40.1277 35.9133 40.198 35.9649 40.2578C36.0164 40.3176 36.0803 40.3655 36.1521 40.3981C36.224 40.4308 36.3026 40.4475 36.3816 40.4471Z" fill="black"/>
<path d="M20.9601 40.9561C20.9784 40.9562 20.9966 40.9554 21.0148 40.9539C21.159 40.9396 21.2917 40.8687 21.3837 40.7568C21.4758 40.6449 21.5196 40.501 21.5058 40.3567L21.4674 39.9479C21.6049 39.8787 21.7283 39.7846 21.8314 39.6704C22.5774 38.8582 22.3875 36.993 22.3245 36.5201C22.3338 35.7265 21.9797 34.367 20.6552 33.9817C20.8564 33.2243 21.2076 32.515 21.688 31.8959C21.7888 31.7914 21.844 31.6511 21.8414 31.5059C21.8388 31.3607 21.7786 31.2225 21.6741 31.1217C21.5695 31.0209 21.4293 30.9657 21.2841 30.9684C21.1389 30.971 21.0007 31.0312 20.8999 31.1357C19.9377 32.1329 19.4517 34.2159 19.4315 34.3046C19.4135 34.3833 19.4132 34.4649 19.4305 34.5438C19.4478 34.6226 19.4823 34.6966 19.5316 34.7605C19.5808 34.8245 19.6436 34.8767 19.7155 34.9135C19.7873 34.9503 19.8664 34.9707 19.947 34.9734C21.1976 35.015 21.2343 36.2837 21.2294 36.5376C21.2288 36.5675 21.2306 36.5973 21.2348 36.6268C21.3187 37.2269 21.3152 37.836 21.2244 38.4351C21.168 38.3665 21.0954 38.313 21.0131 38.2794C20.9309 38.2459 20.8415 38.2334 20.7532 38.243C20.6088 38.2569 20.4758 38.3275 20.3834 38.4394C20.2911 38.5512 20.2469 38.6952 20.2606 38.8396L20.3236 39.4991C20.3224 39.5261 20.3231 39.5532 20.3258 39.5801L20.4161 40.4646C20.4299 40.5994 20.4932 40.7243 20.5938 40.815C20.6944 40.9058 20.8246 40.9561 20.9601 40.9561Z" fill="black"/>
<path d="M18.7478 40.956C18.8833 40.9558 19.014 40.9055 19.1145 40.8146C19.215 40.7237 19.2782 40.5987 19.2919 40.4639L19.3816 39.5795C19.3842 39.5533 19.385 39.527 19.3838 39.5007L19.4467 38.839C19.4536 38.7674 19.4463 38.6953 19.4253 38.6266C19.4042 38.5579 19.3698 38.494 19.3241 38.4386C19.2784 38.3832 19.2221 38.3373 19.1587 38.3037C19.0952 38.27 19.0257 38.2492 18.9542 38.2424C18.8659 38.2327 18.7766 38.2452 18.6944 38.2787C18.6122 38.3123 18.5397 38.3658 18.4835 38.4345C18.3928 37.8356 18.3895 37.2266 18.4736 36.6267C18.4778 36.5963 18.4797 36.5655 18.4791 36.5348C18.4736 36.2836 18.5108 35.0149 19.7614 34.9733C19.8347 34.9731 19.9072 34.9582 19.9746 34.9294C20.042 34.9007 20.1029 34.8587 20.1538 34.806C20.2046 34.7533 20.2444 34.6909 20.2707 34.6225C20.297 34.5541 20.3093 34.4812 20.3069 34.4079C20.3045 34.3347 20.2874 34.2627 20.2566 34.1962C20.2259 34.1297 20.1821 34.0701 20.1278 34.0208C20.0736 33.9716 20.01 33.9337 19.9409 33.9095C19.8717 33.8853 19.7984 33.8752 19.7253 33.8798C17.8442 33.9416 17.3735 35.606 17.3839 36.52C17.3215 36.9929 17.1311 38.8576 17.8765 39.6709C17.9803 39.7847 18.104 39.8786 18.2416 39.9478L18.2027 40.3572C18.189 40.5014 18.2329 40.6451 18.3249 40.7569C18.417 40.8687 18.5495 40.9395 18.6936 40.9538C18.7117 40.9555 18.7297 40.9558 18.7478 40.956ZM26.1354 40.4475C26.2366 40.4475 26.3358 40.4196 26.422 40.3667C26.5083 40.3139 26.5782 40.2383 26.6242 40.1481L29.7203 34.0549C29.7532 33.9908 29.7732 33.9208 29.779 33.849C29.7848 33.7772 29.7764 33.7049 29.7542 33.6363C29.732 33.5677 29.6964 33.5042 29.6496 33.4494C29.6028 33.3946 29.5456 33.3496 29.4814 33.3169C29.4171 33.2843 29.3471 33.2647 29.2752 33.2592C29.2033 33.2537 29.1311 33.2624 29.0626 33.2849C28.9941 33.3074 28.9308 33.3432 28.8762 33.3903C28.8216 33.4373 28.7768 33.4947 28.7445 33.5591L25.6478 39.6523C25.6054 39.7356 25.5851 39.8285 25.5888 39.9219C25.5925 40.0154 25.6201 40.1063 25.669 40.1861C25.7178 40.2658 25.7863 40.3317 25.8679 40.3775C25.9494 40.4233 26.0419 40.4474 26.1354 40.4475Z" fill="black"/>
<path d="M26.1365 40.4477C26.2305 40.4476 26.3229 40.4234 26.4048 40.3773C26.4867 40.3312 26.5553 40.2647 26.6041 40.1844C26.6529 40.1041 26.6802 40.0125 26.6833 39.9186C26.6864 39.8246 26.6653 39.7315 26.622 39.6481L23.5253 33.6813C23.4584 33.5525 23.343 33.4555 23.2046 33.4117C23.0662 33.3679 22.9161 33.3809 22.7872 33.4479C22.6584 33.5148 22.5614 33.6301 22.5177 33.7685C22.4739 33.9069 22.4869 34.0571 22.5538 34.1859L25.6499 40.1527C25.6962 40.2417 25.7661 40.3163 25.8519 40.3684C25.9377 40.4204 26.0362 40.4478 26.1365 40.4477Z" fill="black"/>
</svg>
