<svg width="52" height="52" viewBox="0 0 52 52" fill="none" xmlns="http://www.w3.org/2000/svg">
<circle cx="26" cy="26" r="26" fill="#CBF1DC"/>
<ellipse cx="26" cy="37" rx="15" ry="1" fill="#074D26" fill-opacity="0.2"/>
<path d="M37.3007 26.6927L39.4663 23.298L38.8729 20.9636L33.8638 17.6533L26.9451 16.804L19.0926 17.8221L15.3126 19.3071C15.3126 19.3071 12.4691 21.768 12.4269 22.2771C12.3847 22.7861 13.1919 25.4608 13.2341 25.5874C13.2763 25.714 13.8276 28.473 15.4841 29.0665C17.1407 29.6599 27.7916 31.1899 27.9632 31.1027C28.1347 31.0155 37.3007 26.6927 37.3007 26.6927Z" fill="#2F2F2F"/>
<path d="M38.4453 25.6324C38.4453 25.6324 38.3806 24.9124 38.1359 24.1952C37.8097 23.2333 34.7947 19.054 26.3488 19.054C17.9028 19.054 13.2341 23.2136 13.7009 25.2921C14.1678 27.3705 19.9812 32.5933 19.9812 32.5933C19.9812 32.5933 30.1681 31.024 30.3369 30.9818C30.5084 30.9368 38.4453 25.6324 38.4453 25.6324Z" fill="#F7B03A"/>
<path d="M34.5164 23.1576C34.7639 23.211 34.9804 23.3713 34.9579 23.6582C34.9382 23.9451 34.6739 24.0801 34.4376 24.0407C34.0692 23.9788 33.937 23.7173 33.9848 23.4613C34.0326 23.2279 34.2914 23.107 34.5164 23.1576ZM34.7526 24.4935C34.5051 24.8845 34.8792 25.4273 35.6273 25.6635C36.3754 25.8998 36.8957 25.7816 36.9829 25.2698C37.0701 24.7579 36.4036 24.4345 36.0604 24.3163C35.7173 24.1982 35.0086 24.0913 34.7526 24.4935ZM30.7448 21.6641C30.7279 22.0438 30.1851 22.2548 29.4173 22.1563C28.6495 22.0579 28.2389 21.636 28.2782 21.2535C28.3176 20.871 28.8576 20.722 29.4764 20.7613C30.0951 20.8007 30.7645 21.1832 30.7448 21.6641ZM28.1095 20.6713C28.1095 21.0116 27.7073 21.1241 27.187 21.0932C26.5682 21.0595 26.3995 20.8176 26.3714 20.5926C26.3432 20.3676 26.7145 20.0132 27.2376 20.0526C27.7551 20.092 28.1095 20.2973 28.1095 20.6713ZM22.9514 23.8551C22.9908 24.2854 22.6954 24.7579 21.5367 24.6623C20.3779 24.5666 20.1501 23.9845 20.1501 23.7791C20.1501 23.5738 20.3414 22.9495 21.4467 22.9326C22.1132 22.9213 22.8923 23.2054 22.9514 23.8551ZM17.5542 23.6104C17.5767 23.8298 17.5064 24.3979 16.4629 24.367C15.4223 24.3388 15.5489 23.9845 15.5489 23.827C15.5489 23.6695 15.9032 23.0901 16.6401 23.0113C17.2279 22.9466 17.5148 23.2448 17.5542 23.6104ZM16.2182 25.132C16.2379 25.3963 15.9342 25.6045 15.2845 25.5651C14.7332 25.5313 14.4942 25.2416 14.5082 25.0251C14.5279 24.7101 14.8317 24.5526 15.3042 24.5723C15.7176 24.5891 16.1873 24.7607 16.2182 25.132ZM28.1489 27.7673C28.1376 27.9923 27.6567 28.2595 26.8804 28.2595C26.1042 28.2595 25.9579 27.936 25.9579 27.6998C25.9579 27.4635 26.2026 27.1991 26.9198 27.1682C27.5611 27.1401 28.1686 27.3848 28.1489 27.7673Z" fill="#FFE36A"/>
<path d="M36.2065 26.9909C36.1784 26.9234 36.1447 26.6281 36.0012 26.3806C35.8747 26.164 35.6497 25.9868 35.3909 25.9868C34.9381 25.9868 33.9172 26.164 33.6809 26.4875C33.5094 26.7237 33.5234 27.5984 34.2125 27.8234C34.9015 28.0512 36.2065 26.9909 36.2065 26.9909ZM34.1056 22.4684C34.0915 22.6484 33.8019 23.0084 33.4165 22.9803C33.034 22.9521 31.9231 22.4403 31.8134 22.2125C31.7065 21.9875 32.1565 21.4756 32.4519 21.4756C32.7472 21.4756 34.1337 22.0971 34.1056 22.4684ZM22.7825 25.4975C22.8978 25.7309 23.0187 26.42 22.5181 26.6084C22.0175 26.794 20.0797 26.884 20.0797 26.3243C20.0797 25.7646 20.6309 25.3625 20.8362 25.3315C21.0444 25.3006 22.6053 25.1431 22.7825 25.4975ZM20.5128 24.5834C20.8306 25.0756 20.2512 25.6606 19.8237 25.8603C18.9012 26.2934 18.4372 26.2203 18.1137 25.9784C17.5625 25.565 17.7509 25.1515 18.9294 24.6031C19.7703 24.2093 20.2962 24.2487 20.5128 24.5834Z" fill="#D64C12"/>
<path d="M25.6992 21.65C25.7076 22.1704 24.5432 22.6963 23.7051 22.7216C22.867 22.7469 22.6476 22.3532 22.5857 22.1675C22.5239 21.9819 22.8192 21.3435 23.151 21.0707C23.4829 20.7979 24.3323 20.5166 24.7148 20.5672C25.0973 20.615 25.6879 20.9863 25.6992 21.65Z" fill="#7F594B"/>
<path d="M32.5445 24.3837C32.4883 24.7353 31.9511 24.9743 31.0061 25.0362C29.8614 25.1093 29.1358 24.5918 29.1105 24.3725C29.0851 24.1503 29.7517 23.585 30.9189 23.585C32.3364 23.5822 32.5923 24.0743 32.5445 24.3837Z" fill="#FE8D00"/>
<path d="M32.9495 26.4762C32.9861 27.1034 32.5445 27.3622 31.9286 27.3369C31.3127 27.3116 30.1567 26.735 29.9233 26.0684C29.777 25.655 30.4661 24.9237 31.4758 24.9603C32.058 24.9828 32.9186 25.9278 32.9495 26.4762Z" fill="#7F594B"/>
<path d="M22.1162 22.7694C21.8687 22.9044 20.9462 22.6457 20.2205 22.4994C19.4949 22.3532 18.7552 22.2772 18.6455 22.0438C18.5359 21.8104 18.7327 20.826 19.8155 20.7388C20.8984 20.6516 21.5143 21.0594 21.773 21.3407C22.0318 21.6247 22.2034 21.9679 22.2174 22.0663C22.2287 22.1675 22.2877 22.6766 22.1162 22.7694ZM17.709 24.6172C17.3574 24.5554 17.5852 23.4979 17.8693 23.1772C18.1534 22.8566 18.9521 22.7104 19.4584 22.7722C19.9618 22.8341 20.3077 22.9691 20.333 23.2532C20.3584 23.5372 19.4584 24.0154 18.9915 24.2263C18.5218 24.4316 17.9199 24.6538 17.709 24.6172Z" fill="#FE8D00"/>
<path d="M29.7968 25.4131C29.5072 25.5143 28.8322 25.3174 28.8237 24.8899C28.8153 24.4624 29.2006 24.0631 29.5803 24.1502C29.7715 24.1924 30.1709 24.6902 30.1625 24.8815C30.154 25.0756 29.9459 25.3624 29.7968 25.4131ZM28.3793 22.8481C28.354 23.1884 27.5975 23.5427 27.3359 23.3177C27.0884 23.104 27.2318 22.1956 27.5525 22.1956C27.9518 22.1956 28.3906 22.7074 28.3793 22.8481ZM27.665 24.4821C27.6593 24.6031 27.4822 25.1599 27.0462 25.1515C26.6103 25.1431 26.0197 24.6987 26.0197 24.4737C26.0197 24.2487 26.7059 23.5259 27.0293 23.5343C27.2487 23.5399 27.6734 24.2487 27.665 24.4821Z" fill="#92A51E"/>
<path d="M26.2306 22.8735C26.2812 23.1744 26.0562 23.2053 25.8565 23.2391C25.6568 23.2728 25.4037 23.3347 25.1421 23.675C24.8806 24.0153 24.6246 24.7213 24.5937 24.7972C24.4981 25.0419 24.0621 25.1713 23.7499 24.8675C23.4378 24.5638 24.0537 23.225 24.6021 22.7975C25.1534 22.37 26.1349 22.3166 26.2306 22.8735Z" fill="#FBE0BC"/>
<path d="M26.3712 23.5878C26.3291 23.8662 25.6934 24.3781 25.2491 24.1531C24.8047 23.9281 25.2828 23.0984 25.4769 23.0084C25.5978 22.9493 26.4331 23.1828 26.3712 23.5878ZM23.7866 22.9015C23.9862 22.8931 24.1522 22.9634 24.1437 23.3009C24.1353 23.6412 24.0059 24.0237 23.5616 24.049C23.1172 24.0743 23.075 23.4922 23.075 23.4218C23.075 23.3515 23.345 22.9184 23.7866 22.9015ZM23.6572 24.7437C23.8231 24.7043 24.6219 25.0475 24.6387 25.3709C24.6556 25.6915 24.3603 25.9362 23.8569 25.9981C23.3534 26.06 23.0131 26.06 22.9428 25.8153C22.8753 25.5706 23.1622 24.8647 23.6572 24.7437Z" fill="#92A51E"/>
<path d="M20.032 27.6715C20.0011 27.8599 19.3373 28.1553 19.1236 28.0962C18.9127 28.0371 18.3923 26.9515 17.6133 26.7293C16.8342 26.5043 16.5755 26.5999 16.4686 26.4818C16.3617 26.3637 16.5164 25.8209 16.7752 25.7281C17.0339 25.6353 17.7314 25.5031 18.6033 26.0121C19.4977 26.5296 20.0686 27.4606 20.032 27.6715ZM28.343 24.994C28.7255 25.0165 29.2402 25.5846 29.4623 26.1021C29.8027 26.8868 29.9095 27.5393 29.8167 27.7053C29.7211 27.8712 29.0433 28.1018 28.7677 27.9162C28.6973 27.8684 28.627 26.9965 28.2839 26.3356C28.0505 25.8884 27.6595 25.7112 27.5892 25.6409C27.5189 25.5706 27.7186 24.9603 28.343 24.994ZM31.6336 21.0115C31.7377 21.1099 32.0217 21.5656 31.9289 22.3671C31.8558 22.9774 31.7714 23.3487 31.5745 23.4387C31.4227 23.509 30.337 23.6159 30.2414 23.3318C30.1458 23.0478 30.818 22.2603 30.8911 22.1168C30.9642 21.9734 30.998 21.1493 31.0092 21.0453C31.0205 20.9384 31.4677 20.8568 31.6336 21.0115Z" fill="#FBE0AF"/>
<path d="M9.49903 20.9214C10.0081 19.9033 10.5593 19.5208 11.0262 19.5208C11.4931 19.5208 13.1047 20.2858 13.1047 20.2858C13.1047 20.2858 16.7187 16.4046 25.8847 16.2724C34.7553 16.143 38.5268 19.8133 38.5268 19.8133C38.5268 19.8133 39.8037 18.8402 41.0356 18.9668C42.2647 19.0961 43.325 22.3221 42.7737 23.2558C42.2225 24.1896 41.4153 24.1474 40.7797 24.4877C40.144 24.828 39.5478 25.2105 39.4212 25.4214C39.2947 25.6324 38.9122 30.3461 37.7225 32.4668C36.5328 34.5902 34.2856 37.4336 26.0506 37.6024C17.8156 37.7711 15.5937 34.4468 14.5925 32.5511C13.4028 30.3011 12.8515 26.1414 12.8515 26.1414C12.8515 26.1414 12.0022 25.3764 11.0684 24.9968C10.0362 24.5749 9.58341 24.4877 9.28528 24.063C8.98997 23.6355 8.98997 21.9396 9.49903 20.9214ZM25.7553 28.8583C34.6259 28.7711 38.915 25.9699 38.7856 22.7889C38.7012 20.7105 34.5415 17.2708 26.3909 17.3552C18.1531 17.4424 13.0203 20.4124 13.0625 23.1686C13.1075 25.9277 17.0534 28.9427 25.7553 28.8583Z" fill="#00B14F"/>
<path opacity="0.6" d="M26.0818 21.1017C25.1846 21.006 25.5924 19.4957 24.8555 18.0389C23.1709 14.7004 19.8605 14.3629 19.9534 11.5139C20.0546 8.3976 24.8865 6.88448 26.3574 8.07979C26.8299 8.4651 24.1215 8.90667 24.549 10.6842C24.9793 12.4617 28.2559 12.5826 29.0518 15.4317C29.9996 18.8123 26.664 21.1607 26.0818 21.1017Z" fill="#EAEAEA"/>
</svg>
