<svg width="52" height="52" viewBox="0 0 52 52" fill="none" xmlns="http://www.w3.org/2000/svg">
<circle cx="26" cy="26" r="26" fill="#CBF1DC"/>
<ellipse cx="26" cy="42" rx="15" ry="1" fill="#074D26" fill-opacity="0.2"/>
<path d="M14.0449 20.5481L16.6352 20.8209L15.5046 15.2971C15.4031 14.7994 15.1685 14.3385 14.8257 13.9636C14.483 13.5887 14.045 13.3138 13.5584 13.1681L8.35805 11.6043C7.32586 11.295 6.28523 12.0656 6.28523 13.1456C6.28523 14.1609 7.29492 14.8696 8.24836 14.5237L8.97117 14.3606L11.8849 15.224C12.1683 15.3083 12.4246 15.4654 12.6284 15.6795C12.8321 15.8937 12.9763 16.1575 13.0465 16.4446L14.0449 20.5481ZM16.7309 32.2734L18.5337 39.9375L20.7246 39.164L19.3746 32.2734H16.7309Z" fill="#65878D"/>
<path d="M18.0049 37.6875H35.7012V40.0303H18.4043L18.0049 37.6875Z" fill="#65878D"/>
<path d="M40.4517 22.5226L38.3676 32.6813C38.2073 33.4688 37.5155 34.0313 36.7139 34.0313H17.4426C17.3154 34.0314 17.1919 33.9884 17.0923 33.9092C16.9927 33.83 16.9228 33.7194 16.8942 33.5954L13.5136 18.9676C13.4264 18.5935 13.7301 18.2476 14.1126 18.2813L38.9498 20.5032C39.1865 20.5243 39.4161 20.5952 39.6235 20.7112C39.8308 20.8272 40.0114 20.9858 40.1532 21.1764C40.295 21.3671 40.3949 21.5856 40.4463 21.8176C40.4978 22.0496 40.4996 22.2898 40.4517 22.5226ZM36.5283 22.8291L35.3301 22.7223C35.2134 22.7118 35.0957 22.7257 34.9846 22.7632C34.8735 22.8007 34.7715 22.8609 34.6849 22.94C34.5984 23.0191 34.5293 23.1154 34.4821 23.2227C34.4348 23.33 34.4104 23.446 34.4105 23.5632V24.9188C34.4105 25.3857 34.7873 25.7626 35.2542 25.7626H36.5142C36.9136 25.7626 37.2595 25.4813 37.3411 25.0876L37.5267 24.1763C37.5595 24.0213 37.559 23.861 37.5253 23.7061C37.4915 23.5512 37.4252 23.4053 37.3308 23.2779C37.2365 23.1506 37.1161 23.0447 36.9777 22.9673C36.8394 22.89 36.6862 22.8429 36.5283 22.8291ZM25.7817 28.0098H24.1842C23.7173 28.0098 23.3405 28.3866 23.3405 28.8535V30.6563C23.3405 31.1232 23.7173 31.5001 24.1842 31.5001H25.7817C26.2486 31.5001 26.6255 31.1232 26.6255 30.6563V28.8535C26.6255 28.3866 26.2486 28.0098 25.7817 28.0098ZM24.1842 25.7598H25.7817C26.2486 25.7598 26.6255 25.3829 26.6255 24.916V22.7138C26.6255 22.2779 26.2908 21.9123 25.8576 21.8729L24.2601 21.7295C24.1434 21.7189 24.0257 21.7329 23.9146 21.7704C23.8035 21.8079 23.7015 21.8681 23.6149 21.9472C23.5284 22.0263 23.4593 22.1226 23.4121 22.2299C23.3648 22.3372 23.3404 22.4532 23.3405 22.5704V24.916C23.3405 25.3829 23.7173 25.7598 24.1842 25.7598ZM28.8755 28.8535V30.6563C28.8755 31.1232 29.2523 31.5001 29.7192 31.5001H31.3167C31.7836 31.5001 32.1605 31.1232 32.1605 30.6563V28.8535C32.1605 28.3866 31.7836 28.0098 31.3167 28.0098H29.7192C29.2523 28.0098 28.8755 28.3866 28.8755 28.8535ZM29.7192 25.7598H31.3167C31.7836 25.7598 32.1605 25.3829 32.1605 24.916V23.2088C32.1605 22.7729 31.8258 22.4073 31.3926 22.3679L29.7951 22.2245C29.6784 22.214 29.5607 22.2279 29.4496 22.2654C29.3385 22.3029 29.2365 22.3631 29.1499 22.4422C29.0634 22.5213 28.9943 22.6176 28.9471 22.7249C28.8998 22.8322 28.8754 22.9482 28.8755 23.0654V24.916C28.8755 25.3829 29.2523 25.7598 29.7192 25.7598ZM16.8548 22.1766L17.5326 25.1045C17.5756 25.2901 17.6802 25.4556 17.8293 25.5741C17.9785 25.6926 18.1634 25.7571 18.3539 25.757H20.2467C20.7136 25.757 21.0905 25.3801 21.0905 24.9132V22.2188C21.0905 21.7829 20.7558 21.4173 20.3226 21.3779L17.7548 21.1473C17.1811 21.0966 16.7255 21.6198 16.8548 22.1766ZM19.9036 31.5001H20.5251C20.8345 31.5001 21.0876 31.247 21.0876 30.9376V28.8535C21.0876 28.3866 20.7108 28.0098 20.2439 28.0098H19.2623C18.7195 28.0098 18.3173 28.516 18.4411 29.0448L18.8067 30.631C18.865 30.8782 19.005 31.0985 19.204 31.2563C19.4031 31.414 19.6496 31.4999 19.9036 31.5001ZM36.5705 28.8451C36.6605 28.412 36.3286 28.007 35.887 28.007H35.2542C34.7873 28.007 34.4105 28.3838 34.4105 28.8507V30.7998C34.4105 30.8914 34.4285 30.9821 34.4636 31.0667C34.4986 31.1513 34.55 31.2282 34.6147 31.293C34.6795 31.3577 34.7564 31.4091 34.841 31.4442C34.9257 31.4792 35.0164 31.4973 35.108 31.4973C35.6423 31.4973 36.1036 31.1204 36.2105 30.5973L36.5705 28.8451Z" fill="#33C072"/>
<path d="M19.7544 41.999C18.0458 41.999 16.6606 40.6139 16.6606 38.9053C16.6606 37.1966 18.0458 35.8115 19.7544 35.8115C21.463 35.8115 22.8481 37.1966 22.8481 38.9053C22.8481 40.6139 21.463 41.999 19.7544 41.999Z" fill="#2F2F2F"/>
<path d="M19.7545 40.348C18.9576 40.348 18.3116 39.7021 18.3116 38.9052C18.3116 38.1084 18.9576 37.4624 19.7545 37.4624C20.5513 37.4624 21.1973 38.1084 21.1973 38.9052C21.1973 39.7021 20.5513 40.348 19.7545 40.348Z" fill="#65878D"/>
<path d="M34.6157 41.999C32.9071 41.999 31.522 40.6139 31.522 38.9053C31.522 37.1966 32.9071 35.8115 34.6157 35.8115C36.3244 35.8115 37.7095 37.1966 37.7095 38.9053C37.7095 40.6139 36.3244 41.999 34.6157 41.999Z" fill="#2F2F2F"/>
<path d="M34.6158 40.348C33.8189 40.348 33.173 39.7021 33.173 38.9052C33.173 38.1084 33.8189 37.4624 34.6158 37.4624C35.4126 37.4624 36.0586 38.1084 36.0586 38.9052C36.0586 39.7021 35.4126 40.348 34.6158 40.348Z" fill="#65878D"/>
<path d="M7.64641 15.6545C6.49541 15.6545 5.56234 14.7214 5.56234 13.5704C5.56234 12.4194 6.49541 11.4863 7.64641 11.4863C8.7974 11.4863 9.73047 12.4194 9.73047 13.5704C9.73047 14.7214 8.7974 15.6545 7.64641 15.6545Z" fill="#65878D"/>
</svg>
