<svg width="52" height="52" viewBox="0 0 52 52" fill="none" xmlns="http://www.w3.org/2000/svg">
<circle cx="26" cy="26" r="26" fill="#CBF1DC"/>
<ellipse cx="23.8741" cy="34.1176" rx="18.5739" ry="1.60214" transform="rotate(14.3773 23.8741 34.1176)" fill="#074D26" fill-opacity="0.2"/>
<path d="M16.8818 18.8099L17.586 18.7502L20.5273 19.9984C20.5273 19.9984 19.1824 20.1919 19.1278 20.2189C19.0722 20.2471 17.6693 19.3763 17.5112 19.3397C17.3565 19.3026 16.8818 18.8099 16.8818 18.8099Z" fill="#059445"/>
<path d="M10.1601 19.3521L16.882 18.8098L19.5933 20.2206L16.2914 21.2072L13.0671 21.9683L10.6326 19.8876L10.1601 19.3521Z" fill="#C1BFC0"/>
<path d="M13.9287 21.25L19.9238 19.9434L19.5706 22.3689L15.4407 24.0564L14.1481 24.3145L13.5912 22.8622L13.9287 21.25Z" fill="#E0D9DB"/>
<path d="M12.9727 21.4125L8.81297 19.522C8.81297 19.522 10.442 21.2263 10.2991 23.6136L12.9727 24.5181V21.4125Z" fill="#00B14F"/>
<path d="M14.1479 21.2073V24.251L12.9723 24.5182L12.5212 23.8927L12.6253 21.7006L12.5212 21.4205L13.2406 21.2073H14.1479Z" fill="#059445"/>
<path d="M12.4773 24.3152C12.5594 24.228 16.8749 23.1514 16.8749 23.1514L18.4004 24.5261L17.0538 26.3182L16.1706 27.7841L14.4331 27.4309L13.0488 25.9914L12.4773 24.3152Z" fill="#737475"/>
<path d="M13.9286 29.1644L21.4268 32.7678L21.3986 31.19L20.4694 30.4734L18.4005 29.9823L16.4891 29.0328L14.5418 28.0451L12.6743 27.5388L13.9286 29.1644Z" fill="#243438"/>
<path d="M17.6419 21.6549L16.6654 22.1831V23.5843L18.3057 24.7149L20.3835 24.8837L21.5142 24.0568L20.3565 22.0459L17.7921 21.4485L17.6419 21.6549Z" fill="#059445"/>
<path d="M24.6113 20.5333C24.6113 20.5333 19.3323 18.7958 17.1672 21.1076L19.2406 21.5959L21.8303 22.0464L24.6113 20.5333Z" fill="#00B14F"/>
<path d="M21.5781 20.9141C21.5781 20.9141 20.0172 19.6125 17.167 21.1076V21.8484L21.5781 24.0568V20.9141Z" fill="#D3314C"/>
<path d="M24.6113 20.5334L21.2526 20.7607V24.0249L24.6113 23.2301V20.5334Z" fill="#059445"/>
<path d="M21.4269 31.4595L19.3772 30.5797V31.0522L13.9288 28.2639V26.6079L15.8301 27.3408L18.3742 28.6526L20.2007 28.9856L21.2526 29.2601L21.4269 31.4595ZM28.2501 23.3381L24.3581 22.5095L18.9008 24.386L20.0775 25.5223L23.5757 25.8288C23.5757 25.8288 26.6779 25.8474 26.8652 25.403C27.0508 24.9592 28.5015 24.9541 28.5386 24.7106C28.5786 24.4659 28.2501 23.3381 28.2501 23.3381Z" fill="#243438"/>
<path d="M20.9422 26.4812L25.0974 26.6078L32.0752 30.1813V32.14L26.7444 33.2706L21.8186 29.3106L20.9422 26.4812Z" fill="#939598"/>
<path d="M40.3091 34.3169C40.3091 34.3169 38.4421 36.1068 35.2072 35.6563L35.3 35.5117V34.4188L35.7016 34.4514L39.0733 33.5283H40.1561L40.3091 34.3169Z" fill="#BF3413"/>
<path d="M42.5888 30.1813C42.5888 30.1813 43.216 27.2163 40.466 25.8286C40.466 25.8286 39.9704 25.5018 38.7397 25.7116C38.7397 25.7116 35.6375 26.228 35.6375 27.0183C35.6375 27.8064 36.0419 28.0162 36.0419 28.0162L38.3465 29.6655L39.7769 30.4738H40.8929L42.5917 30.1813" fill="#2E4044"/>
<path d="M39.7076 30.1813C39.7076 30.1813 39.3426 27.1511 37.6134 26.6009C37.6134 26.6009 36.1718 26.0249 35.3634 27.3868C34.5506 28.7486 37.2242 29.1946 37.2242 29.1946L39.7104 30.1813" fill="#243438"/>
<path d="M43.8628 31.2794L41.4485 30.1814L36.5705 30.529L36.4502 32.7025L39.3667 34.7838L43.6631 33.3505L43.8628 31.2794Z" fill="#00B14F"/>
<path d="M40.0035 33.6587L43.6631 32.6519L43.5933 33.2706L40.0344 34.39L40.0035 33.6587Z" fill="#D0C9CC"/>
<path d="M30.9146 23.5395C30.9146 23.5395 29.0111 22.7458 26.1631 23.4349C26.1631 23.4349 28.0396 23.6632 28.2759 24.0592L28.7 24.3894C28.7 24.3894 29.744 23.9737 29.7997 23.9597C29.8526 23.945 30.9146 23.5395 30.9146 23.5395Z" fill="#00B14F"/>
<path d="M30.9146 23.5393L30.8217 25.0924L27.9581 24.0793L30.9146 23.5393Z" fill="#059445"/>
<path d="M19.0645 28.3031L15.4105 26.7292V28.2109L19.0645 29.7999V28.3031Z" fill="#E0D9DB"/>
<path d="M22.2314 24.8837C22.2314 24.8837 16.9884 23.3132 14.8374 25.4394L16.895 26.0666L19.4668 26.4806L22.2314 24.8837Z" fill="#00B14F"/>
<path d="M44 30.5269L43.8627 31.649L40.8927 32.445L41.0328 31.0522L44 30.5269Z" fill="#D0C9CC"/>
<path d="M40.8927 32.445L39.5871 31.8864L39.7772 30.4734L41.0327 31.0522L40.8927 32.445Z" fill="#A5A2A3"/>
<path d="M28.1824 23.9568L22.2322 24.8838V27.6277C22.2322 27.6277 31.7745 31.6045 32.6621 32.3015L35.0966 34.5419C35.0966 34.5419 37.6475 35.1607 40.1591 33.6149L40.4668 30.6415C40.4668 30.6415 36.333 25.6561 28.1824 23.9568Z" fill="#059445"/>
<path d="M40.1558 31.649C40.1558 31.649 39.087 32.2554 36.8078 32.3859C36.8078 32.3859 36.387 32.5293 36.2998 32.9484L36.0422 34.7832L39.0876 34.3923L39.8104 34.1189L40.0568 33.6774L40.1558 31.649Z" fill="#243438"/>
<path d="M40.156 33.6587C40.156 33.6587 38.8865 34.6689 35.6392 34.6622L35.5863 35.5065C35.5863 35.5065 38.1749 35.8367 40.0683 34.3703L40.1577 33.6587" fill="#D0C9CC"/>
<path d="M39.1811 29.8562L41.0114 29.3105L44 30.5267L41.0328 31.052L39.1811 30.1813V29.8562Z" fill="#D8D4D5"/>
<path d="M40.4658 30.6483C40.4658 30.6483 39.7329 32.3195 35.8696 31.5466C35.8696 31.5466 27.2915 25.7248 22.229 24.746L28.1791 23.8196C28.1791 23.8196 36.1498 25.6381 40.4636 30.6478" fill="#DB3A0E"/>
<path d="M19.0532 25.44C19.0532 25.44 17.4197 24.2419 14.4323 25.6189V26.2989L19.0532 28.3307V25.44Z" fill="#059445"/>
<path d="M22.2314 24.8838L19.0533 25.4401V28.3308L22.2314 27.6288V24.8838Z" fill="#059445"/>
<path d="M21.5517 27.0691C21.5517 27.0691 23.5154 27.3121 22.5603 29.5385L21.6817 30.4919L20.0543 29.6499L19.0627 29.8001V28.3033L20.1668 28.0794C20.1674 28.0794 20.335 27.0118 21.5517 27.0691Z" fill="#C1BFC0"/>
<path d="M25.3252 28.2603C25.3252 28.2603 27.0031 28.1754 27.4227 28.7086C27.4227 28.7086 29.0517 29.8578 28.8003 33.0551L28.6327 35.2696L28.5202 35.5498C28.5202 35.5498 25.3763 36.6714 24.1445 36.5865C24.1445 36.5865 23.0273 36.3896 22.3827 35.718C22.3827 35.718 20.5613 34.0918 21.1767 30.3354C21.1767 30.3354 21.5035 28.7795 23.5218 28.4741L25.3252 28.2603Z" fill="#2E4044"/>
<path d="M21.8938 32.9798C22.1165 34.1509 22.7949 35.0042 23.4086 34.885C24.0223 34.7691 24.3379 33.7257 24.1151 32.5557C23.8924 31.3845 23.2123 30.5312 22.5986 30.6494C21.9844 30.7664 21.6694 31.8092 21.8938 32.9798Z" fill="#D0C9CC"/>
<path d="M11.5722 23.1007C11.5722 23.1007 12.9082 23.0281 13.244 23.4843C13.244 23.4843 14.54 24.4692 14.3386 27.2075L14.2064 29.1053L14.1181 29.3461C14.1181 29.3461 11.6144 30.3063 10.6345 30.2343C10.6345 30.2343 9.74467 30.0655 9.23055 29.4895C9.23055 29.4895 7.78211 28.0957 8.27205 24.8776C8.27205 24.8776 8.53305 23.5445 10.139 23.2829L11.5722 23.1007Z" fill="#2E4044"/>
<path d="M8.83789 27.1444C9.01902 28.1468 9.55789 28.878 10.0456 28.7779C10.5333 28.6767 10.7847 27.7823 10.6081 26.7799C10.4292 25.7775 9.89033 25.0463 9.40039 25.147C8.9127 25.2471 8.66127 26.142 8.83789 27.1444Z" fill="#D0C9CC"/>
<path d="M35.4521 33.9496L33.0378 32.8516L28.265 33.4433L27.338 35.2135L30.9442 36.8504L35.5117 35.6905L35.4521 33.9496Z" fill="#00B14F"/>
<path d="M34.3589 32.4668L31.5745 31.3862L27.817 31.9656L28.2653 33.4433L30.9445 34.5846L34.2953 33.805L34.3589 32.4668Z" fill="#D8D4D5"/>
<path d="M35.6411 34.6645L35.5843 35.5094L31.0061 36.5894V35.7315L35.6411 34.6645ZM34.3586 32.4668L31.0061 33.2537L30.9442 34.5846L34.2951 33.805L34.3586 32.4668Z" fill="#D0C9CC"/>
<path d="M31.0063 33.2537L27.817 31.9656L28.2653 33.4433L30.9445 34.5846L31.0063 33.2537Z" fill="#A5A2A3"/>
<path d="M8.81545 19.5219L10.1598 19.3521L14.1479 21.2072L12.6871 21.4946L8.81545 19.5219Z" fill="#059445"/>
<path d="M26.5653 24.0737L28.1814 23.8223C28.1814 23.8223 36.152 25.6414 40.4658 30.651C40.4658 30.651 40.3618 30.8861 40.0288 31.141C35.2537 25.9879 28.583 24.4388 26.5653 24.0737Z" fill="#00B14F"/>
<path d="M38.6465 31.6804C37.9777 31.7906 37.076 31.7873 35.8689 31.5465C35.8689 31.5465 27.2907 25.7246 22.2282 24.7459L24.1385 24.4478C31.8723 25.7173 37.1604 30.2629 38.6442 31.6798" fill="#00B14F"/>
<path d="M26.5653 24.0737C28.583 24.4388 35.2537 25.9879 40.0293 31.141C39.752 31.3508 39.3138 31.5741 38.6472 31.6832C37.1611 30.2663 31.8747 25.7207 24.1415 24.4512L26.5653 24.0737Z" fill="white"/>
<path d="M17.7427 20.3894L15.3279 18.9353L13.3383 19.0956L16.3196 20.7212L17.7427 20.3894Z" fill="#00B14F"/>
<path d="M27.3381 29.3798C27.3381 29.3798 28.1194 30.2207 28.1571 31.2068L25.2315 31.8193C25.2315 31.8193 24.9385 30.5959 24.1414 29.8686L27.3381 29.3798ZM13.221 24.0388C13.221 24.0388 13.8944 24.7661 13.9275 25.6166L11.4025 26.1465C11.4025 26.1465 11.1482 25.0896 10.4614 24.4618L13.221 24.0388ZM41.1447 26.6078C41.22 26.6145 42.0059 27.5724 42.0059 27.9572L39.7075 28.4736C39.7075 28.4736 39.2462 27.2456 38.7855 26.9402L41.1447 26.6078Z" fill="#939598"/>
</svg>
