<svg width="52" height="52" viewBox="0 0 52 52" fill="none" xmlns="http://www.w3.org/2000/svg">
<circle cx="26" cy="26" r="26" fill="#CBF1DC"/>
<ellipse cx="26" cy="37" rx="15" ry="1" fill="#074D26" fill-opacity="0.2"/>
<path d="M13.2314 23.6218H10.7564C10.1939 23.6218 9.77207 24.0718 9.77207 24.6062C9.77207 25.1687 10.2221 25.5906 10.7564 25.5906H13.2314V23.6218Z" fill="#EA6C3A"/>
<path d="M35.6751 14.1156C35.7876 14.9031 35.9844 16.3937 36.0969 17.1812C36.1532 17.4906 36.4907 17.6875 36.7719 17.5469C37.5876 17.1531 38.0938 16.2812 37.9532 15.3531C37.8126 14.425 37.0813 13.7219 36.2094 13.5531C35.9001 13.4969 35.6188 13.7781 35.6751 14.1156Z" fill="#FAC136"/>
<path d="M38.5439 37.2905C35.8257 37.2905 33.6221 35.0869 33.6221 32.3687C33.6221 29.6504 35.8257 27.4468 38.5439 27.4468C41.2622 27.4468 43.4658 29.6504 43.4658 32.3687C43.4658 35.0869 41.2622 37.2905 38.5439 37.2905Z" fill="#2F2F2F"/>
<path d="M38.5438 35.0969C37.0371 35.0969 35.8157 33.8755 35.8157 32.3687C35.8157 30.862 37.0371 29.6406 38.5438 29.6406C40.0505 29.6406 41.272 30.862 41.272 32.3687C41.272 33.8755 40.0505 35.0969 38.5438 35.0969Z" fill="#65878D"/>
<path d="M16.522 37.2905C13.8037 37.2905 11.6001 35.0869 11.6001 32.3687C11.6001 29.6504 13.8037 27.4468 16.522 27.4468C19.2402 27.4468 21.4438 29.6504 21.4438 32.3687C21.4438 35.0869 19.2402 37.2905 16.522 37.2905Z" fill="#2F2F2F"/>
<path d="M16.5219 35.0969C15.0152 35.0969 13.7937 33.8755 13.7937 32.3687C13.7937 30.862 15.0152 29.6406 16.5219 29.6406C18.0286 29.6406 19.25 30.862 19.25 32.3687C19.25 33.8755 18.0286 35.0969 16.5219 35.0969Z" fill="#65878D"/>
<path d="M17.0844 22.3843H17.0281C16.4375 22.4125 8.22498 23.1718 8.22498 32.1156C8.22498 32.65 8.67498 33.1 9.20935 33.1H29.4875C31.625 33.1 33.6219 32.1718 35.0281 30.5687L37.7281 27.4468C38.0937 27.025 38.2344 26.4625 38.1219 25.9C37.5594 23.3406 36.4625 20.9218 34.8594 18.8125L34.3531 18.1375H32.2437L34.2125 26.2656C34.0719 28.7125 32.0187 30.625 29.5719 30.6531H26.1125C24.5375 30.6531 23.2719 29.3875 23.2719 27.8125C23.2719 26.8281 23.7781 25.9281 24.6219 25.3937L26.2812 24.3531C26.6187 24.1281 26.8437 23.7343 26.8437 23.3406V22.3562H17.0844V22.3843Z" fill="#00B14F"/>
<path d="M17.3938 24.4656C17.422 24.4656 17.422 24.4656 17.3938 24.4656C17.6188 24.4656 17.7876 24.6625 17.7876 24.8593C17.7876 25.0843 17.6188 25.2531 17.3938 25.2531C13.9345 25.2531 11.1501 28.0375 11.1501 31.4968C11.1501 31.7218 10.9813 31.8906 10.7563 31.8906C10.5313 31.8906 10.3626 31.7218 10.3626 31.4968C10.3626 27.6156 13.5126 24.4656 17.3938 24.4656Z" fill="#BAE9F3"/>
<path d="M25.3813 23.4532L26.8438 22.7782C27.0688 22.6657 27.2095 22.4407 27.2095 22.2157C27.2095 20.8938 26.1407 19.7969 24.7907 19.7969H20.7126C19.3345 19.7969 17.9282 19.7126 16.5501 19.5157C15.2001 19.4032 14.0751 20.4719 14.0751 21.8219V22.7782C14.0751 23.0876 14.3282 23.3688 14.6657 23.3688L23.3282 23.7344C24.0313 23.8751 24.7345 23.7626 25.3813 23.4532ZM13.147 14.7063L13.1751 14.7626C13.6813 15.5219 13.9626 16.3938 13.9626 17.2938V17.8563C13.9626 18.1094 13.7938 18.3626 13.5407 18.4469L13.2032 18.5594C12.8938 18.6438 12.5563 18.4751 12.4438 18.1657L11.6001 15.3813C11.4876 15.0438 11.6845 14.7063 12.022 14.6219L12.5001 14.4813C12.7532 14.3969 13.0063 14.4813 13.147 14.7063Z" fill="#2F2F2F"/>
<path d="M11.5157 15.4374C11.347 15.4937 11.2626 15.6624 11.3188 15.8311L12.922 21.5124C13.0626 22.0468 13.4845 22.4968 13.9907 22.6936L14.6938 22.9749V22.2718L14.5251 22.2155C13.9626 22.0186 13.5407 21.5686 13.372 20.978L11.9095 15.6343C11.8532 15.4937 11.6845 15.3812 11.5157 15.4374Z" fill="#2F2F2F"/>
<path d="M31.9909 17.5188L31.6252 16.2812C31.5127 15.9437 31.6252 15.55 31.9065 15.325L33.0877 14.3125C33.5659 13.9188 34.1565 13.6656 34.7752 13.6094L36.6034 13.4688C36.744 13.4688 36.8565 13.525 36.9127 13.6375L37.1377 14.1437C37.5034 14.9594 37.6721 15.8313 37.6159 16.7031L37.5877 17.1813C37.5877 17.3219 37.4752 17.4344 37.3346 17.4625L36.1252 17.6312C35.169 17.7719 34.5784 18.7562 34.944 19.6844L32.5252 19.2063L31.9909 17.5188Z" fill="#00B14F"/>
<path d="M33.2 14.3126C33.2 14.3126 33.7063 14.0876 33.9875 14.7907C34.2688 15.4657 33.6782 16.0845 33.6782 16.0845L31.5688 16.7876C31.1469 16.9282 30.6969 16.647 30.6125 16.197C30.5563 15.8876 30.725 15.5782 31.0063 15.4376L33.2 14.3126Z" fill="#2F2F2F"/>
<path d="M43.1562 30.5407H41.8906C38.9937 30.5688 36.1812 31.4969 33.7906 33.1844C33.3968 33.4657 32.8624 33.1563 32.8906 32.6501C32.9187 32.0313 33.0312 31.1876 33.3406 30.3157C33.9031 28.6282 35.0843 27.1376 36.9406 26.6313C40.7937 25.5907 42.8468 28.1782 43.6624 29.6126C43.8593 30.0626 43.5781 30.5407 43.1562 30.5407Z" fill="#00B14F"/>
<path d="M39.7812 27.9249C39.7812 27.9249 37.7562 27.2499 36.0969 28.5156C34.9719 29.3593 34.6062 30.5687 34.6062 30.5687" stroke="#BAE9F3" stroke-width="0.703125" stroke-miterlimit="10" stroke-linecap="round"/>
</svg>
